<svg xmlns="http://www.w3.org/2000/svg" width="92" height="129" viewBox="0 0 92 129" fill="none">
  <path d="M77.3465 60.0294C77.3465 60.0294 88.8733 58.7522 87.5925 40.871C87.5925 25.5443 70.9421 16.6038 56.8536 16.6038V0H44.0459V17.8811C40.2035 17.8811 36.3617 17.8811 32.5194 17.8811V0H19.7116V17.8811C10.7462 17.8811 3.06155 17.8811 0.5 17.8811V34.4849H15.8695V94.5147H0.5V106.01V109.842H19.7116V129H31.2381V109.842H42.7654V129H54.2927V109.842H55.5732C55.5732 109.842 91.5 111.25 91.5 85.2351C91.5 59.7425 77.3465 60.0294 77.3465 60.0294ZM51.731 33.208C58.1349 33.208 63.2575 37.0395 63.2575 43.4256C63.2575 49.8118 58.1349 56.1979 51.731 56.1979H37.642V33.208H51.731ZM56.8536 95.792H37.642V72.8017H55.5732C61.977 72.8017 67.1001 77.9109 68.3809 84.297C68.3809 89.406 63.2575 95.792 56.8536 95.792Z" fill="#FF9900"/>
</svg>