<svg width="400" height="410" viewBox="0 0 400 410" fill="none" xmlns="http://www.w3.org/2000/svg">
<path d="M6.94195 264.311C-5.25056 219.072 0.0756737 164.831 32.2478 106.93C66.3312 50.0843 110.653 18.3419 155.928 6.28491C201.211 -5.77402 247.485 1.84812 285.491 23.8003C323.497 45.7525 353.225 82.0303 365.42 127.276C377.612 172.514 372.286 226.756 340.114 284.656C306.031 341.502 261.709 373.245 216.434 385.302C171.151 397.361 124.876 389.739 86.8707 367.786C48.8652 345.834 19.1364 309.556 6.94195 264.311Z" fill="white" stroke="#FF9900"/>
<path d="M315.764 271.988C426.76 72.406 173.658 -73.9189 56.334 122.236C-54.6619 321.554 198.441 467.879 315.764 271.988Z" fill="#FF9900"/>
<path d="M397.231 157.037C386.686 75.3063 289.399 25.7404 287.29 24.4221C495.309 153.61 270.944 502.68 68.9893 356.619C200.022 487.916 421.487 354.51 397.231 157.037Z" fill="#FF9900"/>
<path d="M236.406 225.585C236.406 225.585 254.334 235.868 274.108 208.976C291.245 185.775 279.117 155.455 258.289 138.054L278.59 112.744L260.661 98.507L240.361 123.817C235.088 119.862 229.551 115.38 224.014 111.162L244.579 85.5882L226.651 71.3512L205.823 97.4524C192.64 87.4338 181.831 78.997 177.349 75.5696L157.575 100.353L179.458 118.017L108.8 205.548L87.1809 188.675L73.4712 205.812L68.9893 211.876L96.4086 233.759L73.4712 262.233L90.872 276.206L113.282 248.259L129.892 261.705L107.745 289.388L125.146 303.362L147.293 275.942L149.929 278.051C149.929 278.051 198.968 321.817 228.496 282.797C258.025 243.25 236.406 225.585 236.406 225.585ZM230.342 155.982C240.097 163.101 241.943 174.965 234.56 184.984C226.915 195.266 212.678 197.375 202.923 189.729L183.149 174.174L210.568 139.372L230.342 155.982ZM163.903 254.323L137.274 231.649L164.694 197.111L191.058 218.467C200.813 225.585 202.659 239.559 195.277 249.577C187.895 259.596 173.658 261.969 163.903 254.323Z" fill="white"/>
</svg>
